#!OML:ASF X:\für Bonn\!DataBase\2005_08_10_Bjorn_Final\c3d\bjorn.ASF
:FULLY-SPECIFIED
:DEGREES
146
root 0.324051 19.6091 4.25858 -195.724 -36.8437 188.903
lowerback 14.3701 -4.85985 -1.94367
upperback 15.6512 -9.2495 -0.110273
thorax 9.29736 -5.89149 1.31323
lowerneck -8.87684 -8.10603 -2.42619
upperneck 4.09956 -11.6877 11.8383
head 3.536 -5.49565 3.24639
rclavicle -8.74653e-015 -7.95139e-015
rhumerus -38.0122 1.75303 -85.1462
rradius 28.5375
rwrist 7.00604
rhand -2.57675 12.1886
rfingers 7.12502
rthumb 23.1201 -16.4441
lclavicle -8.74653e-015 -7.95139e-015
lhumerus 37.4089 -21.7415 67.9634
lradius 88.8706
lwrist 3.62568
lhand -46.3943 -23.1095
lfingers 7.12502
lthumb -19.1249 5.97024
rfemur -50.6755 -12.5499 17.4079
rtibia 97.9841
rfoot 3.11202 10.4107
rtoes -21.9705
lfemur 3.16333 4.57925 -11.8231
ltibia 15.457
lfoot 6.97169 -30.3156
ltoes 15.9086
147
root 0.299297 19.5884 4.24046 -194.876 -36.5174 188.4
lowerback 13.4186 -4.98762 -1.98507
upperback 15.2342 -9.25715 -0.0797292
thorax 9.33032 -5.82636 1.29048
lowerneck -9.15219 -7.92973 -2.53731
upperneck 4.93614 -11.448 11.2997
head 3.78756 -5.34331 3.09646
rclavicle 2.78299e-014 5.56597e-014
rhumerus -38.1031 1.39817 -84.8621
rradius 29.2745
rwrist 7.12594
rhand -2.57213 12.0841
rfingers 7.12502
rthumb 23.1245 -16.548
lclavicle 2.78299e-014 5.56597e-014
lhumerus 36.3454 -22.5955 66.6818
lradius 87.8256
lwrist 4.84563
lhand -45.8345 -23.1483
lfingers 7.12502
lthumb -18.5865 5.98378
rfemur -48.8885 -12.3393 17.0858
rtibia 95.8131
rfoot 3.03721 10.2259
rtoes -22.4961
lfemur 1.97741 7.17606 -11.7351
ltibia 16.8148
lfoot 8.02509 -32.4982
ltoes 16.869
148
root 0.276975 19.5683 4.21809 -194.013 -36.1072 187.875
lowerback 12.4637 -5.07684 -2.05287
upperback 14.7963 -9.21322 -0.0536882
thorax 9.34778 -5.73741 1.27633
lowerneck -9.3874 -7.75066 -2.62396
upperneck 5.82093 -11.2068 10.7418
head 4.04671 -5.19611 2.93878
rclavicle 9.54166e-015 2.06736e-014
rhumerus -38.2585 1.27104 -84.6933
rradius 30.0878
rwrist 6.95048
rhand -2.61513 11.8388
rfingers 7.12502
rthumb 23.0833 -16.7985
lclavicle 9.54166e-015 2.06736e-014
lhumerus 35.3379 -23.5626 65.2901
lradius 86.8258
lwrist 6.24163
lhand -45.2982 -22.6663
lfingers 7.12502
lthumb -18.0706 6.5143
rfemur -47.1191 -12.0117 16.8057
rtibia 93.5515
rfoot 2.80326 9.93909
rtoes -23.4957
lfemur 0.889011 9.68432 -11.6997
ltibia 18.0477
lfoot 9.29295 -34.4656
ltoes 17.9736
149
root 0.255507 19.548 4.19206 -193.153 -35.6318 187.354
lowerback 11.4772 -5.1382 -2.10973
upperback 14.3707 -9.13609 -0.0415262
thorax 9.39816 -5.63249 1.23511
lowerneck -9.62814 -7.55703 -2.60489
upperneck 6.68493 -10.9481 10.1251
head 4.29263 -5.04796 2.7494
rclavicle 2.90226e-014 2.3059e-014
rhumerus -38.3688 1.09344 -84.5558
rradius 30.8391
rwrist 6.81085
rhand -2.74528 11.7006
rfingers 7.12502
rthumb 22.9584 -16.9523
lclavicle 2.90226e-014 2.3059e-014
lhumerus 34.3774 -24.6358 63.8251
lradius 85.895
lwrist 7.58125
lhand -44.6089 -21.89
lfingers 7.12502
lthumb -17.4073 7.35054
rfemur -45.3666 -11.6251 16.593
rtibia 91.2182
rfoot 2.43542 9.58717
rtoes -24.5
lfemur -0.108947 12.1852 -11.6844
ltibia 19.145
lfoot 10.9168 -36.2624
ltoes 19.3767
150
root 0.235522 19.5272 4.16157 -192.305 -35.1381 186.86
lowerback 10.4934 -5.18737 -2.16518
upperback 13.9277 -9.04251 -0.0176008
thorax 9.43496 -5.52025 1.20828
lowerneck -9.82475 -7.35881 -2.56666
upperneck 7.53424 -10.6814 9.50495
head 4.52813 -4.90386 2.55888
rclavicle -2.66371e-014 6.44062e-014
rhumerus -38.4727 0.922128 -84.4409
rradius 31.5303
rwrist 6.65142
rhand -3.04367 11.573
rfingers 7.12502
rthumb 22.672 -17.1153
lclavicle -2.66371e-014 6.44062e-014
lhumerus 33.3181 -25.82 62.4153
lradius 85.0338
lwrist 8.64665
lhand -43.7827 -21.0241
lfingers 7.12502
lthumb -16.612 8.28496
rfemur -43.6126 -11.2161 16.4341
rtibia 88.813
rfoot 2.00724 9.06015
rtoes -24.8623
lfemur -1.04111 14.1615 -11.7612
ltibia 20.1459
lfoot 12.2669 -37.5704
ltoes 20.6193
